<?xml version="1.0" standalone="no"?>
<!DOCTYPE svg PUBLIC "-//W3C//DTD SVG 20010904//EN"
 "http://www.w3.org/TR/2001/REC-SVG-20010904/DTD/svg10.dtd">
<svg version="1.0" xmlns="http://www.w3.org/2000/svg"
 width="358.000000pt" height="287.000000pt" viewBox="0 0 358.000000 287.000000"
 preserveAspectRatio="xMidYMid meet">
<metadata>
Created by potrace 1.16, written by Peter Selinger 2001-2019
</metadata>
<g transform="translate(0.000000,287.000000) scale(0.100000,-0.100000)"
fill="#000000" stroke="none">
<path d="M2 2513 l3 -356 34 -12 c41 -14 63 -41 43 -54 -11 -7 -11 -9 2 -14
21 -8 42 -49 24 -46 -59 8 -65 -1 -79 -111 -5 -41 -13 -100 -18 -130 -9 -52
-15 -560 -7 -560 2 0 48 16 102 36 55 20 115 40 134 45 19 4 47 11 63 15 15 3
27 9 27 13 0 3 15 6 33 6 17 1 50 4 72 8 159 29 302 45 488 53 132 6 147 5
147 -10 0 -10 -8 -16 -23 -16 -76 0 -358 -23 -447 -36 -132 -20 -308 -63 -472
-116 l-128 -41 0 -33 c0 -19 2 -34 4 -34 2 0 24 8 48 18 245 105 556 169 912
188 122 7 126 6 126 -13 0 -20 -6 -21 -107 -22 -169 -2 -373 -29 -548 -71
-111 -27 -308 -92 -381 -127 l-54 -25 0 -79 c0 -44 2 -79 4 -79 2 0 47 20 99
45 185 87 422 155 662 189 128 19 389 26 392 11 1 -5 -10 -11 -25 -12 -15 0
-85 -4 -157 -7 -273 -13 -541 -76 -780 -184 -98 -45 -98 -46 25 -56 55 -5 78
-2 153 24 99 33 108 35 105 18 -2 -6 11 -12 32 -12 31 -1 35 2 35 23 0 28 11
32 145 56 119 21 162 19 255 -12 111 -36 107 -34 132 -84 24 -48 29 -90 13
-119 -7 -13 -7 -21 0 -25 5 -3 10 -18 10 -33 0 -18 -3 -23 -9 -14 -4 7 -12 12
-17 11 -19 -4 -73 14 -68 22 3 5 -3 9 -12 9 -14 0 -15 3 -6 12 17 17 15 24 -8
24 -11 0 -20 -6 -20 -13 0 -7 -11 -13 -25 -13 -16 0 -25 -6 -25 -15 0 -12 -4
-14 -16 -7 -12 7 -22 4 -35 -9 -26 -26 -37 -24 -41 8 -4 34 -32 49 -108 58
-68 8 -157 32 -165 45 -8 13 -75 13 -75 0 0 -5 8 -14 17 -20 16 -10 16 -11 -2
-5 -64 22 -84 24 -135 15 -30 -5 -77 -9 -105 -9 -70 0 -88 -4 -102 -21 -11
-13 -12 -13 -13 2 0 24 -31 38 -84 38 l-46 0 0 -425 0 -425 614 0 c536 0 615
2 620 15 7 19 43 19 80 0 24 -13 135 -15 802 -15 697 0 774 2 774 16 0 14 1
14 16 0 13 -14 59 -16 345 -16 l329 0 0 600 c0 393 -3 600 -10 600 -5 0 -10
-11 -10 -24 0 -16 -7 -26 -22 -30 -36 -9 -96 -7 -103 4 -3 6 -1 10 6 10 7 0 9
3 6 7 -4 3 -1 13 6 21 9 13 9 14 0 8 -20 -12 -15 1 12 30 14 15 25 24 25 22 0
-3 19 0 43 7 38 11 42 15 45 48 3 32 1 36 -25 40 l-28 4 28 2 27 1 0 200 0
200 -27 2 c-16 0 -35 1 -44 0 -19 -1 -20 18 -7 76 14 58 28 53 28 -10 0 -50 2
-53 25 -53 l25 0 0 112 c0 80 -4 113 -12 116 -10 4 -10 6 0 6 9 1 12 95 12
436 l0 435 -874 0 c-690 0 -875 -3 -879 -12 -4 -10 -8 -10 -15 1 -12 16 -36 5
-25 -12 4 -7 -5 -4 -20 6 -20 13 -47 17 -117 17 -49 0 -90 -3 -90 -8 0 -4 -15
-13 -32 -21 -18 -8 -44 -23 -57 -33 -14 -10 -39 -18 -60 -17 -20 0 -30 3 -23
6 6 2 12 15 12 27 0 12 5 27 12 34 9 9 8 12 -8 12 -12 0 -24 -11 -32 -30 -8
-17 -17 -28 -22 -25 -5 3 -10 1 -12 -4 -1 -5 -15 -7 -29 -4 -21 4 -25 9 -21
34 l4 28 -646 0 -646 0 2 -356z m1507 251 c-11 -13 -9 -14 14 -9 17 5 33 2 44
-6 9 -8 28 -19 42 -25 23 -10 20 -11 -29 -10 -30 1 -61 5 -67 9 -9 6 -11 3 -7
-8 4 -9 19 -19 35 -22 16 -3 29 -10 29 -15 0 -5 -4 -7 -9 -4 -5 3 -12 -2 -15
-11 -4 -9 -1 -20 5 -24 15 -9 -20 -28 -39 -22 -8 3 -10 -1 -6 -11 4 -11 1 -16
-11 -16 -9 0 -13 5 -10 10 3 6 0 17 -9 25 -9 9 -17 11 -21 5 -3 -5 -15 -10
-27 -10 -14 0 -18 -5 -14 -15 3 -8 1 -15 -5 -15 -15 0 -2 51 17 70 13 13 14
13 9 -5 -6 -16 -5 -17 4 -5 6 8 11 22 11 31 0 23 26 44 33 27 3 -7 6 1 6 18 1
16 6 35 13 42 17 17 23 15 7 -4z m121 -198 c0 -12 15 -13 78 -9 54 3 99 0 143
-11 70 -18 139 -45 139 -56 0 -3 -27 -7 -60 -8 -34 -1 -69 -6 -78 -11 -9 -5
-44 -7 -77 -6 -38 3 -54 0 -45 -6 13 -7 12 -9 -2 -9 -10 0 -18 -5 -18 -11 0
-6 9 -9 20 -6 11 3 18 1 14 -4 -8 -14 -31 -11 -48 6 -13 14 -16 13 -25 -2 -8
-15 -12 -16 -35 -3 -26 14 -36 40 -14 40 6 0 9 3 5 6 -9 9 -71 -14 -93 -35
-18 -16 -55 -29 -91 -33 -7 -1 -13 -7 -13 -14 0 -7 -12 -22 -27 -33 -25 -18
-26 -20 -7 -21 11 0 25 5 32 12 7 7 12 8 12 3 0 -6 -15 -20 -34 -33 -43 -29
-116 -100 -116 -113 0 -5 -4 -9 -9 -9 -5 0 -11 -10 -15 -22 -7 -29 -52 -52
-60 -32 -3 8 -1 14 4 14 6 0 10 4 10 9 0 11 27 44 86 107 43 46 71 94 54 94
-6 0 -10 -7 -10 -15 0 -8 -4 -15 -10 -15 -5 0 -10 -6 -10 -12 0 -12 -16 -16
-76 -19 -13 -1 -32 -18 -48 -43 -20 -29 -26 -34 -21 -16 11 37 51 86 100 123
50 36 63 57 36 57 -22 0 -24 30 -2 31 12 0 11 3 -4 9 -19 9 -19 9 2 16 13 3
20 10 17 15 -3 5 20 9 51 9 40 0 57 -4 61 -15 5 -12 12 -11 47 7 23 11 44 24
47 29 6 8 38 17 69 18 11 1 11 4 1 16 -10 12 -10 15 4 15 9 0 16 -6 16 -14z
m872 -1493 c116 -52 196 -95 316 -165 45 -26 84 -48 86 -48 3 0 60 -39 128
-86 155 -107 348 -270 348 -292 0 -10 -3 -13 -8 -6 -14 20 -162 148 -162 139
0 -3 -13 9 -30 27 -16 17 -30 28 -30 24 0 -4 -15 7 -32 24 -18 16 -41 33 -50
36 -10 3 -18 9 -18 13 0 4 -11 13 -25 19 -14 7 -31 16 -38 22 -18 15 -105 71
-157 101 -110 64 -161 91 -370 192 -125 60 -89 61 42 0z m-19 -64 c213 -96
641 -362 655 -408 4 -12 -12 -13 -99 -7 -126 10 -240 22 -219 25 45 5 -218
158 -457 266 -34 16 -60 32 -57 36 3 6 117 -39 174 -70 8 -4 50 -27 93 -50 92
-50 109 -60 213 -126 78 -50 79 -50 184 -56 58 -4 108 -4 113 -2 4 3 -7 15
-25 27 -18 13 -62 43 -98 67 -123 85 -265 167 -422 243 -86 42 -161 76 -167
76 -6 0 -11 7 -11 15 0 8 2 15 5 15 3 0 56 -23 118 -51z"/>
</g>
</svg>
